<svg 
 xmlns="http://www.w3.org/2000/svg"
 xmlns:xlink="http://www.w3.org/1999/xlink"
 width="671px" height="99px">
<path fill-rule="evenodd"  fill="rgb(255, 255, 255)"
 d="M49.497,0.9 C76.837,0.9 99.1,22.167 99.1,49.499 C99.1,76.832 76.837,98.990 49.497,98.990 C22.156,98.990 0.8,76.832 0.8,49.499 C0.8,22.167 22.156,0.9 49.497,0.9 Z"/>
<path fill-rule="evenodd"  fill="rgb(227, 47, 40)"
 d="M83.295,47.858 C79.776,44.510 74.917,44.140 70.510,48.740 C64.651,54.855 58.189,58.483 49.192,59.410 C43.495,60.3 37.969,59.215 32.938,57.319 L32.841,57.298 C34.307,57.330 35.793,57.268 37.289,57.112 C59.90,54.767 76.859,32.984 67.756,17.810 C65.672,14.375 61.466,10.674 55.154,9.316 C48.438,7.870 40.149,8.309 30.688,13.457 C11.562,23.864 3.971,48.242 14.190,67.718 L14.489,68.283 C24.707,87.759 49.176,95.436 68.297,85.27 C77.759,79.875 83.780,71.462 86.210,61.908 L86.346,61.340 C86.743,59.652 88.16,52.353 83.295,47.858 ZM47.608,15.963 C52.584,15.963 56.618,20.28 56.618,25.42 C56.618,30.57 52.584,34.122 47.608,34.122 C42.632,34.122 38.598,30.57 38.598,25.42 C38.598,20.28 42.632,15.963 47.608,15.963 ZM44.169,29.798 C41.435,27.861 40.962,24.66 42.440,21.675 C43.220,20.413 44.409,19.582 45.752,19.568 C47.219,19.552 48.858,20.719 48.521,22.401 C48.450,22.756 48.183,23.316 48.522,23.562 C48.865,23.799 49.298,23.357 49.605,23.170 C51.63,22.282 52.897,23.386 53.378,24.783 C53.818,26.61 53.254,27.524 52.339,28.692 C50.606,30.902 46.902,31.736 44.169,29.798 Z"/>
<path fill-rule="evenodd"  fill="rgb(61, 61, 61)"
 d="M668.753,80.620 L659.922,80.620 C658.266,80.620 657.530,79.976 656.978,78.688 L648.422,59.737 L648.422,78.412 C648.422,79.976 647.686,80.620 646.122,80.620 L637.843,80.620 C636.279,80.620 635.635,79.976 635.635,78.412 L635.635,17.879 C635.635,16.315 636.279,15.671 637.843,15.671 L646.122,15.671 C647.686,15.671 648.422,16.315 648.422,17.879 L648.422,46.305 L656.610,31.862 C657.254,30.666 657.806,29.930 659.554,29.930 L668.385,29.930 C670.317,29.930 670.685,31.494 669.857,32.966 L658.726,52.377 L670.409,77.860 C671.53,79.240 670.593,80.620 668.753,80.620 ZM630.601,66.820 C630.601,78.504 623.334,81.356 613.674,81.356 C609.350,81.356 605.119,80.620 603.3,80.68 C601.715,79.700 601.71,79.240 601.71,77.676 L601.71,70.500 C601.71,69.28 601.899,68.384 603.555,68.936 C605.27,69.396 608.431,70.40 611.926,70.40 C615.54,70.40 618.90,69.212 618.90,66.268 C618.90,63.233 615.238,61.853 610.546,59.277 C604.659,55.965 600.611,53.297 600.611,43.454 C600.611,33.426 605.119,29.194 616.618,29.194 C620.758,29.194 624.622,29.746 626.462,30.298 C627.658,30.574 628.301,31.126 628.301,32.690 L628.301,39.774 C628.301,41.62 627.474,41.798 626.2,41.430 C624.806,41.154 621.954,40.510 619.102,40.510 C615.238,40.510 613.122,41.154 613.122,44.98 C613.122,47.41 616.158,48.421 621.218,51.181 C627.474,54.585 630.601,58.449 630.601,66.820 ZM589.290,77.400 C587.358,87.151 583.954,91.199 573.6,91.199 C570.247,91.199 566.751,91.15 565.463,90.555 C564.267,90.187 563.715,89.451 563.715,88.255 L563.715,81.540 C563.715,79.976 564.451,79.332 566.15,79.332 C567.119,79.332 568.223,79.608 569.419,79.608 C572.822,79.608 573.282,77.216 572.546,74.180 L562.335,32.414 C561.967,30.850 562.519,29.930 563.991,29.930 L573.6,29.930 C574.662,29.930 575.306,30.850 575.582,32.322 L579.538,55.597 L580.826,64.797 L581.102,64.797 L582.22,55.597 L584.966,32.322 C585.150,30.850 585.702,29.930 587.450,29.930 L596.373,29.930 C597.845,29.930 598.489,30.850 598.121,32.414 L589.290,77.400 ZM558.162,44.742 C557.334,44.742 556.506,44.558 555.310,44.558 C551.354,44.466 549.238,48.237 549.238,54.125 L549.238,78.412 C549.238,79.976 548.502,80.620 546.938,80.620 L538.659,80.620 C537.95,80.620 536.451,79.976 536.451,78.412 L536.451,32.230 C536.451,30.666 537.95,29.930 538.659,29.930 L546.294,29.930 C548.134,29.930 548.686,30.574 548.778,32.230 L549.54,36.646 C550.250,33.426 553.102,29.562 557.702,29.562 C559.542,29.562 560.94,30.206 560.94,31.954 L560.94,42.626 C560.94,44.190 559.358,44.742 558.162,44.742 ZM528.981,28.274 L513.802,28.274 L513.802,42.902 L528.429,42.902 C529.993,42.902 530.913,43.730 530.913,45.386 L530.913,53.21 C530.913,54.677 529.993,55.505 528.429,55.505 L513.802,55.505 L513.802,78.44 C513.802,79.700 512.882,80.620 511.226,80.620 L502.579,80.620 C500.831,80.620 500.3,79.700 500.3,78.44 L500.3,18.247 C500.3,16.591 500.831,15.671 502.579,15.671 L528.981,15.671 C530.637,15.671 531.465,16.499 531.465,18.155 L531.465,25.883 C531.465,27.446 530.637,28.274 528.981,28.274 ZM477.162,44.742 C476.334,44.742 475.506,44.558 474.310,44.558 C470.354,44.466 468.238,48.237 468.238,54.125 L468.238,78.412 C468.238,79.976 467.502,80.620 465.938,80.620 L457.659,80.620 C456.95,80.620 455.451,79.976 455.451,78.412 L455.451,32.230 C455.451,30.666 456.95,29.930 457.659,29.930 L465.294,29.930 C467.134,29.930 467.686,30.574 467.778,32.230 L468.54,36.646 C469.250,33.426 472.102,29.562 476.702,29.562 C478.542,29.562 479.94,30.206 479.94,31.954 L479.94,42.626 C479.94,44.190 478.358,44.742 477.162,44.742 ZM447.73,80.620 L440.818,80.620 C439.70,80.620 438.334,80.160 438.150,78.688 L437.874,76.112 C436.310,78.596 433.90,81.80 427.754,81.80 C420.763,81.80 415.979,76.112 415.979,65.992 C415.979,52.101 423.982,49.525 437.46,49.249 L437.46,45.661 C437.46,41.890 435.574,40.510 431.434,40.510 C427.202,40.510 423.615,41.798 421.775,42.258 C420.211,42.626 419.15,42.166 419.15,40.418 L419.15,33.610 C419.15,32.138 419.843,31.402 420.947,31.34 C423.799,30.114 428.950,29.378 433.182,29.378 C445.49,29.378 449.281,33.610 449.281,44.98 L449.281,78.412 C449.281,79.976 448.637,80.620 447.73,80.620 ZM437.46,57.161 C430.974,57.437 428.214,58.357 428.214,65.164 C428.214,68.844 429.42,71.328 432.170,71.328 C435.758,71.328 437.46,67.832 437.46,63.49 L437.46,57.161 ZM408.440,80.620 L400.253,80.620 C398.689,80.620 397.953,79.976 397.953,78.412 L397.953,47.777 C397.953,43.730 397.217,41.430 394.365,41.430 C390.869,41.430 389.305,44.650 389.305,49.893 L389.305,78.412 C389.305,79.976 388.569,80.620 387.97,80.620 L379.2,80.620 C377.438,80.620 376.794,79.976 376.794,78.412 L376.794,47.777 C376.794,43.730 375.966,41.430 373.206,41.430 C369.526,41.430 368.54,44.466 368.54,50.169 L368.54,78.412 C368.54,79.976 367.410,80.620 365.846,80.620 L357.659,80.620 C356.95,80.620 355.451,79.976 355.451,78.412 L355.451,32.230 C355.451,30.666 356.95,29.930 357.659,29.930 L365.110,29.930 C366.766,29.930 367.502,30.482 367.686,31.862 L367.962,34.346 C369.434,32.46 372.746,29.194 377.898,29.194 C382.865,29.194 385.625,31.586 387.97,35.174 C389.581,31.954 393.721,29.194 398.873,29.194 C407.336,29.194 410.648,35.174 410.648,44.6 L410.648,78.412 C410.648,79.976 410.4,80.620 408.440,80.620 ZM330.306,80.620 L322.27,80.620 C320.463,80.620 319.819,79.976 319.819,78.412 L319.819,17.879 C319.819,16.315 320.463,15.671 322.27,15.671 L330.306,15.671 C331.870,15.671 332.606,16.315 332.606,17.879 L332.606,78.412 C332.606,79.976 331.870,80.620 330.306,80.620 ZM310.857,80.620 L303.405,80.620 C301.750,80.620 301.14,80.160 300.830,78.688 L300.554,76.112 C299.266,78.780 295.218,81.356 290.434,81.356 C280.775,81.356 275.715,74.732 275.715,55.321 C275.715,36.554 280.591,29.194 290.526,29.194 C295.402,29.194 298.990,31.586 300.278,33.794 L300.278,17.879 C300.278,16.315 300.922,15.671 302.485,15.671 L310.857,15.671 C312.421,15.671 313.65,16.315 313.65,17.879 L313.65,78.412 C313.65,79.976 312.421,80.620 310.857,80.620 ZM294.298,40.418 C290.158,40.418 288.686,44.98 288.686,55.321 C288.686,66.544 290.158,70.132 294.298,70.132 C298.346,70.132 300.370,66.360 300.370,55.321 C300.370,44.190 298.346,40.418 294.298,40.418 ZM270.162,44.742 C269.334,44.742 268.506,44.558 267.310,44.558 C263.354,44.466 261.238,48.237 261.238,54.125 L261.238,78.412 C261.238,79.976 260.502,80.620 258.938,80.620 L250.659,80.620 C249.95,80.620 248.451,79.976 248.451,78.412 L248.451,32.230 C248.451,30.666 249.95,29.930 250.659,29.930 L258.294,29.930 C260.134,29.930 260.686,30.574 260.778,32.230 L261.54,36.646 C262.250,33.426 265.102,29.562 269.702,29.562 C271.542,29.562 272.94,30.206 272.94,31.954 L272.94,42.626 C272.94,44.190 271.358,44.742 270.162,44.742 ZM239.557,80.620 L232.106,80.620 C230.450,80.620 229.714,80.160 229.530,78.688 L229.254,76.204 C227.690,78.688 224.838,81.356 219.594,81.356 C211.407,81.356 207.267,76.204 207.267,66.820 L207.267,32.230 C207.267,30.666 208.3,29.930 209.567,29.930 L217.846,29.930 C219.410,29.930 220.54,30.666 220.54,32.230 L220.54,62.497 C220.54,66.820 220.882,69.212 224.10,69.212 C227.506,69.212 228.978,66.360 228.978,60.657 L228.978,32.230 C228.978,30.666 229.714,29.930 231.278,29.930 L239.557,29.930 C241.121,29.930 241.765,30.666 241.765,32.230 L241.765,78.412 C241.765,79.976 241.121,80.620 239.557,80.620 ZM193.28,77.584 C192.660,79.700 191.556,80.620 189.716,80.620 L177.665,80.620 C175.825,80.620 174.721,79.700 174.353,77.584 L170.949,56.977 L169.109,41.706 L168.925,41.706 L166.993,56.977 L163.589,77.584 C163.221,79.700 162.118,80.620 160.370,80.620 L148.226,80.620 C146.386,80.620 145.282,79.700 144.914,77.584 L134.703,18.339 C134.427,16.683 135.71,15.671 136.819,15.671 L146.662,15.671 C148.318,15.671 148.962,16.499 149.238,18.63 L153.930,49.433 L155.586,63.233 L155.770,63.233 L157.334,49.433 L161.750,18.63 C161.934,16.591 162.761,15.671 164.417,15.671 L173.525,15.671 C175.181,15.671 176.9,16.591 176.193,18.63 L180.609,49.433 L182.172,63.233 L182.356,63.233 L184.12,49.433 L188.704,18.63 C188.980,16.499 189.624,15.671 191.372,15.671 L201.215,15.671 C202.871,15.671 203.607,16.683 203.331,18.339 L193.28,77.584 Z"/>
</svg>